<svg xmlns="http://www.w3.org/2000/svg" viewBox="0 0 24 24" fill="none">
  <path fill="currentColor" d="M12 2c4 2 8 3.2 8 7.8 0 3.4-1.9 6.6-4.7 8.7l-.4 2.5-2.9-1.6-2.9 1.6-.4-2.5C5.9 16.4 4 13.2 4 9.8 4 5.2 8 4 12 2Z"/>
  <path fill="#050508" d="M9 11c0-.8.6-1.5 1.4-1.5.7 0 1.3.7 1.3 1.5 0 .5-.3 1.1-.7 1.3l1 2.2h-1.2l-.6-1.3-.6 1.3H8.4l1-2.2c-.5-.2-.8-.8-.8-1.3Zm4.3-1.5c.8 0 1.4.7 1.4 1.5 0 .5-.3 1.1-.8 1.3l1 2.2h-1.2l-.6-1.3-.6 1.3h-1.2l1-2.2c-.4-.2-.7-.8-.7-1.3 0-.8.6-1.5 1.4-1.5Z"/>
</svg>




